<svg width="56" height="56" viewBox="0 0 56 56" xmlns="http://www.w3.org/2000/svg">
<g fill="none" fill-rule="evenodd"><g fill="#23241D" fill-rule="nonzero">
<path d="M24.6275 50.5175H19.955v-.875l5.94125-6.6675H26.01v6.405h1.085v1.1375H26.01v1.47h-1.3825v-1.47zm-2.75625-1.1025a4.7599847 4.7599847 0 0 1 .58625 0h2.17v-3.6225a1.7499982 1.7499982 0 0 1-.16625.25375c-.14.1925-.27125.37625-.4025.53375l-1.8725 2.2225a4.6025002 4.6025002 0 0 1-.42.44625l-.2275.20125.3325-.035zM28.705 43.08h1.3825v4.1825l-.06125.63875.3325-.63a3.8849958 3.8849958 0 0 1 .3675-.56l2.8175-3.63125h1.5575l-3.12375 3.9375 3.45625 4.935H33.78l-2.73-3.91125-1.00625 1.25125v2.695H28.705V43.08zm7-4.59375h-15.75c-2.2954335 0-4.15625-1.8608165-4.15625-4.15625V22.955c0-1.3289352 1.0773148-2.40625 2.40625-2.40625h19.25c1.3289352 0 2.40625 1.0773148 2.40625 2.40625V34.33c0 2.2954335-1.8608165 4.15625-4.15625 4.15625zm-17.5-16.625c-.6040614 0-1.09375.4896886-1.09375 1.09375V34.33c.0048042 1.5685655 1.2751845 2.8389458 2.84375 2.84375h15.75c1.5685655-.0048042 2.8389458-1.2751845 2.84375-2.84375V22.955c0-.6040614-.4896886-1.09375-1.09375-1.09375h-19.25zM34.78625 13.82L27.83 6.86375 20.87375 13.82l-.93625-.9275L27.83 5l7.8925 7.8925zM45.7675 37.41l-.9275-.93625 6.965-6.95625-6.965-6.95625.9275-.93625 7.8925 7.8925zm-35.875 0L2 29.5175l7.8925-7.8925.9275.93625-6.965 6.95625 6.965 6.95625z"/>
<path d="M27.83 33.23625c-2.2954335 0-4.15625-1.8608165-4.15625-4.15625 0-2.2954335 1.8608165-4.15625 4.15625-4.15625 2.2954335 0 4.15625 1.8608165 4.15625 4.15625 0 2.2954335-1.8608165 4.15625-4.15625 4.15625zm0-7c-1.5705598 0-2.84375 1.2731902-2.84375 2.84375s1.2731902 2.84375 2.84375 2.84375 2.84375-1.2731902 2.84375-2.84375c-.0048042-1.5685655-1.2751845-2.8389458-2.84375-2.84375z"/></g>
<path d="M0 0h56v56H0z"/></g>



</svg>

