<svg width="56" height="56" viewBox="0 0 56 56" xmlns="http://www.w3.org/2000/svg"><g fill="none" fill-rule="evenodd"><g fill="#23241D" fill-rule="nonzero"><path d="M48.34375 41.6619318H7V9.296875C7 8.028346 8.028346 7 9.296875 7h36.75c1.268529 0 2.296875 1.028346 2.296875 2.296875v32.3650568zM8.252841 40.4090909h38.838068V9.296875c0-.5766041-.46743-1.044034-1.0440341-1.044034h-36.75c-.5766041 0-1.044034.4674299-1.044034 1.044034v31.1122159z"/><path d="M14.934659 48.34375H9.296875C8.028346 48.34375 7 47.315404 7 46.046875v-5.6377841h7.934659V48.34375zm-6.681818-6.6818182v4.3849432c0 .5766041.4674299 1.0440341 1.044034 1.0440341h4.3849432v-5.4289773H8.2528409z"/><path d="M28.2982955 48.34375H13.6818182v-7.9346591h14.6164773V48.34375zm-13.3636364-1.2528409h12.1107954v-5.4289773H14.9346591v5.4289773z"/><path d="M41.6619318 48.34375H27.0454545v-7.9346591h14.6164773V48.34375zm-13.3636363-1.2528409h12.1107954v-5.4289773H28.2982955v5.4289773z"/><path d="M46.046875 48.34375h-5.6377841v-7.9346591H48.34375v5.6377841c0 1.268529-1.028346 2.296875-2.296875 2.296875zm-4.3849432-1.2528409h4.3849432c.5766041 0 1.0440341-.46743 1.0440341-1.0440341v-4.3849432h-5.4289773v5.4289773zM22.8693182 31.2048864V17.4570455l11.9019886 6.8739204-11.9019886 6.8739205zm1.2528409-11.57625v9.4046591l8.1434659-4.7023296-8.1434659-4.7023295z"/></g><path d="M0 0h56v56H0z"/></g></svg>