<svg width="56" height="56" viewBox="0 0 56 56" xmlns="http://www.w3.org/2000/svg"><g fill="none" fill-rule="evenodd"><path d="M41.5307692 35.6230769H9.2615385c-.3186259 0-.5769231-.2582972-.5769231-.5769231 0-.3186258.2582972-.576923.576923-.576923h32.3076924c.3186258 0 .576923.2582972.576923.576923 0 .3186259-.2582972.5769231-.576923.5769231h-.0384616zm1.1538462 3.5307693h-30.376923c-.318626 0-.5769232-.2582973-.5769232-.5769231S11.9890665 38 12.3076923 38h30.3769231c.3186258 0 .5769231.2582973.5769231.5769231s-.2582973.5769231-.5769231.5769231zm-5.2230769 3.3846153H15.5230769c-.3186258 0-.5769231-.2582972-.5769231-.576923 0-.3186259.2582973-.5769231.5769231-.5769231h21.9384616c.3186258 0 .576923.2582972.576923.5769231 0 .3186258-.2582972.576923-.576923.576923z" fill="#23241D" fill-rule="nonzero"/><path d="M37.4615385 48.8538462c-2.0454111-.0210879-3.6924164-1.6852495-3.6923077-3.7307693 0-.3186258.2582972-.5769231.576923-.5769231.3186259 0 .5769231.2582973.5769231.5769231.0001674 1.0495435.6349997 1.9947764 1.6064825 2.3919701.9714828.3971938 2.0866984.1674734 2.822122-.5813215.7354235-.7487949.9450143-1.8679683.5303822-2.8321373-.414632-.964169-1.371149-1.5818685-2.4205251-1.5631267-.3186259 0-.5769231-.2582972-.5769231-.576923 0-.3186259.2582972-.5769231.5769231-.5769231 1.3746842-.0624051 2.6725126.6354452 3.3785042 1.8166424.7059916 1.1811973.7059916 2.6547486 0 3.8359459s-2.00382 1.8790476-3.3785042 1.8166425zm4.0692307-13.2307613c-.3186258 0-.576923-.2583052-.576923-.5769311 0-.3186258.2582972-.576923.576923-.576923 1.049185.0031133 1.9967927-.6265045 2.4004575-1.5949329.4036648-.9684283.1837807-2.0846854-.5570052-2.8276761-.7407859-.7429906-1.8563846-.966191-2.8260083-.5654059-.9696237.4007851-1.6020547 1.3465176-1.6020594 2.3957072 0 .3186258-.2582972.5769231-.576923.5769231-.3186258 0-.5769231-.2582973-.5769231-.5769231 0-1.5158771.9135588-2.8823449 2.3143452-3.4617247 1.4007863-.5793799 3.0126757-.2574624 4.0834605.8155256 1.0707848 1.0729881 1.3893883 2.6855357.8071304 4.0851282-.582258 1.3995925-1.9506006 2.3103374-3.4664746 2.3072327zm-3.9846154-14.5692387H17.9307692v-4.423077c.0126474-1.1592726.9560431-2.0923766 2.1153846-2.0923077h15.3846154c1.1682947 0 2.1153846.94709 2.1153846 2.1153847v4.4zM19.0846154 19.9h17.3076923v-3.2692308c0-.531043-.4304954-.9615384-.9615385-.9615384H20.0461538c-.531043 0-.9615384.4304954-.9615384.9615384V19.9z" fill="#23241D" fill-rule="nonzero"/><path fill="#23241D" fill-rule="nonzero" d="M7.5461538 21.2461538H6.3923077v-4.4230769h12.1153846v1.1538462H7.5461539zm41.5384616 0h-1.1538462v-3.2692307H36.9692308v-1.1538462h12.1153846zM3.1230769 9.9h8.4615385v1.1538461H3.1230769zm40.7692308 0h8.4615385v1.1538461h-8.4615385zM32.3538462 27.9769231h-9.2307693c-1.1682946 0-2.1153846-.94709-2.1153846-2.1153846v-5.9384616h13.4615385v5.9615385c-.0126474 1.1592726-.9560431 2.0923077-2.1153846 2.0923077zm-10.1923077-6.9230769v4.8076923c-.0062176.2589904.0923355.5095321.2733373.6948779.1810017.1853458.4291361.2898121.6882011.2897375h9.2307693c.531043 0 .9615384-.4304955.9615384-.9615385v-4.8307692H22.1615385z"/><path fill="#23241D" fill-rule="nonzero" d="M47.9307692 12.7846154h1.1538461V17.4h-1.1538461zm-41.5384615 0h1.1538461V17.4H6.3923077zm2.8846154 10.1923077h12.3076923v1.1538461H9.2769231zm24.6153846 0H46.2v1.1538461H33.8923077zm-6.1538462 3.1c-1.1682946 0-2.1153846-.94709-2.1153846-2.1153846 0-1.1682947.94709-2.1153847 2.1153846-2.1153847 1.1682947 0 2.1153847.94709 2.1153847 2.1153847 0 1.1682946-.94709 2.1153846-2.1153847 2.1153846zm0-3.0769231c-.531043 0-.9615384.4304954-.9615384.9615385 0 .531043.4304954.9615384.9615384.9615384.5310431 0 .9615385-.4304954.9615385-.9615384C28.7 23.4304954 28.2695046 23 27.7384615 23z"/><path d="M3 3h49.2307692v49.2307692H3z"/></g></svg>