<svg width="56" height="56" viewBox="0 0 56 56" xmlns="http://www.w3.org/2000/svg"><g fill="none" fill-rule="evenodd"><g fill="#23241D" fill-rule="nonzero"><path d="M38.3828125 30.9973958H34.609375v-11.110677c0-1.042006.8447128-1.8867188 1.8867188-1.8867188 1.0420059 0 1.8867187.8447128 1.8867187 1.8867187v11.1106771zm-2.515625-1.2578125H37.125v-9.8528645c0-.3473354-.2815709-.6289063-.6289062-.6289063-.3473354 0-.6289063.281571-.6289063.6289063v9.8528645zm-15.09375 1.2578125H17v-11.110677C17 18.8447127 17.8447128 18 18.8867188 18c1.042006 0 1.8867187.8447128 1.8867187 1.8867187v11.1106771zm-2.515625-1.2578125h1.2578125v-9.8528645c0-.3473354-.281571-.6289063-.6289063-.6289063s-.6289062.281571-.6289062.6289063v9.8528645zM6.2578333 21.295H5c-.0066583-4.0541712 1.5991752-7.9445816 4.4635506-10.8136759C12.327926 7.6122298 16.2156878 6 20.2698645 6v1.2578125c-3.7205844-.000006-7.288417 1.47971-9.916907 4.112919s-4.101804 6.20369-4.0951243 9.9242685zm5.8614062 0H10.861412c-.004438-2.4981773.984839-4.8955609 2.7497461-6.663614 1.7649072-1.7680532 4.1605252-2.7615943 6.6587064-2.7615943v1.2578125c-2.1638177-.002233-4.2395307.8569258-5.7687949 2.3877633-1.5292641 1.5308374-2.3862881 3.6074328-2.3818301 5.7712471V21.295zm38.5980937 0h-1.2578333c0-7.7386312-6.2734001-14.0120312-14.0120312-14.0120312V6c4.0541767 0 7.9419384 1.6122298 10.8063139 4.4813241 2.8643754 2.8690943 4.4702089 6.7595047 4.4635506 10.8136759zm-5.8614121 0h-1.2578274c.004458-2.1638143-.852566-4.2404097-2.3818302-5.7712471-1.5292641-1.5308375-3.6049771-2.3899963-5.7687948-2.3877633v-1.266198c2.4981812 0 4.8937992.9935412 6.6587063 2.7615944 1.7649072 1.7680531 2.7541843 4.1654367 2.7497461 6.663614zM15.808823 36.4139058h-1.450677v-1.1823437h2.775573v8.5028125h-1.324896zm4.083698 6.3729167c-.3717817-.3857003-.6575774-.8458316-.8385417-1.350052-.4023799-1.268597-.4023799-2.630622 0-3.8992188.1840826-.5027073.4694987-.9622271.8385417-1.3500521.6455077-.6756263 1.5392723-1.0578266 2.473698-1.0578266.9344255 0 1.8281901.3822003 2.4736978 1.0578266.3696346.3905774.655053.8529552.8385417 1.3584375.3911806 1.2703063.3911806 2.6289124 0 3.8992187-.1814222.503999-.4671616.9640394-.8385417 1.3500521-.6455077.6756264-1.5392723 1.0578266-2.4736979 1.0578266s-1.8281902-.3822002-2.4736979-1.0578266v-.0083854zm4.0333854-.8385417c.4751352-.7182733.7019223-1.5724068.6456771-2.4317708.0615863-.8830638-.1778351-1.7609422-.6792187-2.4904687-.3750328-.4802207-.9503753-.7609062-1.5596876-.7609062-.6093122 0-1.1846547.2806855-1.5596875.7609062-.4721203.716192-.6960182 1.5675933-.6372916 2.4233854-.0580967.8583659.1656737 1.7122267.6372916 2.4317708.3768854.477273.9515493.7557147 1.5596875.7557147.6081383 0 1.1828022-.2784416 1.5596875-.7557147l.0335417.0670834zm4.5952084 1.7860938h-1.266198v-7.949375h1.266198v4.8467708a.1173952.1173952 0 0 0 0 .0503125v.1677084l2.0963541-2.3646875h1.4339063l-1.9370313 2.1885937 2.1466667 3.0606771h-1.4674479l-1.5848438-2.2389063-.6624479.6876042-.0251562 1.5513021zm4.7042187-5.2492708h1.2661979v.8972395c.267408-.6220497.8826392-1.0222807 1.5596875-1.0146354.6786036-.0365427 1.3027562.3705134 1.5429167 1.00625.3752511-.6362686 1.0643272-1.0208692 1.8028646-1.00625 1.308125 0 1.9705729.7211459 1.9705729 2.171823v3.1948437h-1.2913542v-3.077448c0-.746302-.3270312-1.1236458-.9810937-1.1236458-.7882292 0-1.1823438.4444271-1.1823438 1.3248959v2.8761979h-1.2494271v-3.077448c0-.746302-.3270312-1.1236457-.9810937-1.1236457-.7882292 0-1.1823438.444427-1.1823438 1.3248958v2.8761979h-1.2745833v-5.2492708z"/><path d="M46.2018229 49.7057292H9.3059896C8.0324267 49.7057292 7 48.6733025 7 47.3997396v-15.09375C7 31.0324267 8.0324267 30 9.3059896 30h36.8958333c1.2735629 0 2.3059896 1.0324267 2.3059896 2.3059896v15.09375c0 1.2735629-1.0324267 2.3059896-2.3059896 2.3059896zM9.3059896 31.2578125c-.5788922 0-1.0481771.4692849-1.0481771 1.0481771v15.09375c0 .5788922.4692849 1.0481771 1.048177 1.0481771H46.201823c.5788922 0 1.0481771-.4692849 1.0481771-1.0481771v-15.09375c0-.5788922-.4692849-1.0481771-1.0481771-1.0481771H9.3059896z"/></g><path d="M0 0h56v56H0z"/></g></svg>