<svg width="56" height="56" viewBox="0 0 56 56" xmlns="http://www.w3.org/2000/svg"><g fill="none" fill-rule="evenodd"><g fill="#23241D" fill-rule="nonzero"><path d="M10.8909463 11.0520114l7.4974241-4.4942278.674809 1.1257394-7.4974241 4.4942278zm26.7449503-3.366344l.6750055-1.1256216 7.4966396 4.4955363-.6750055 1.1256215zM20.31367 36.2371784c-.8987621-.5170222-1.6189779-1.2952215-2.065-2.23125l1.89-.98875c.3048138.5808928.7425317 1.0815701 1.2775 1.46125.6217287.4289899 1.362256.6523721 2.1175.63875 2.0941666 0 3.1383333-.9625 3.1325-2.8875 0-1.8725-1.12875-2.8175-3.38625-2.8175a7.192495 7.192495 0 0 0-1.23375.11375 5.6787387 5.6787387 0 0 0-.8225.2275l-.105-.1925 3.29875-4.2525a6.0024762 6.0024762 0 0 1 .48125-.53375l.2625-.2625-.39375.04375c-.2975 0-.56.04375-.77.04375h-4.48v-1.98625h9.1525v.20125l-3.17625 4.095a5.6087635 5.6087635 0 0 1-.60375.6825c-.16625.175-.25375.2625-.25375.245 1.1507437.0724326 2.2387235.5497799 3.07125 1.3475.8282463.820457 1.2755933 1.9499287 1.23375 3.115.0569506 1.353679-.5029734 2.6601683-1.5225 3.5525-1.060452.874544-2.4066602 1.3263963-3.78 1.26875-1.1681899.0141706-2.3180067-.2914386-3.325-.88375zm15.11125-11.62h-2.45v-2.00375h4.68125v14.32375h-2.23125z"/><path d="M28.34617 49.7734284c-9.7054914 0-18.0595601-6.8555432-19.9531841-16.3745112-1.893624-9.518968 3.2005983-19.0499961 12.1672397-22.76428 8.9666414-3.714284 19.3083625-.5773419 24.7005706 7.4923951 5.3922082 8.0697369 4.3330954 18.8247302-2.5296262 25.6876461-3.8167408 3.8127767-8.9901166 5.9557627-14.385 5.95875zm0-39.375c-9.0792996 0-16.893998 6.4142094-18.664957 15.3191173-1.770959 8.9049079 2.9950554 17.8207433 11.383351 21.2949594 8.3882956 3.474216 18.0626275.5392003 23.1065845-7.0101161 5.043957-7.5493165 4.0527342-17.6103548-2.3674785-24.0302106-3.5708352-3.566565-8.4105958-5.5710692-13.4575-5.57375z"/></g><path d="M0 0h56v56H0z"/></g></svg>