<svg width="56" height="56" viewBox="0 0 56 56" xmlns="http://www.w3.org/2000/svg"><g fill="none" fill-rule="evenodd"><path d="M14.69125 49.0003698H8.855c-.4880334.0070113-.9586196-.1813587-1.307018-.5231836-.3483985-.3418249-.545697-.808738-.547982-1.2968164v-5.8275h1.3125v5.8275c-.0000405.2817345.2258059.5114748.5075.51625h5.83625l.035 1.30375zm32.48875 0h-5.8275v-1.3125H47.18c.2831553-.0046813.5115688-.2330947.51625-.51625v-5.81875H49v5.8275c-.0094907 1.0012007-.8187993 1.8105093-1.82 1.82zm-34.15125-16.625v-1.75l-3.47375-1.75 3.47375-1.75v-1.75l-6.02875 3.5zm-4.68125-17.7625H7v-5.8625c.0379627-.9914443.8630269-1.7698068 1.855-1.75h5.83625v1.3125H8.855c-.2802845 0-.5075.2272154-.5075.5075v5.7925zm40.6525 0h-1.3125v-5.8625c-.0047752-.2816942-.2345154-.5075405-.51625-.5075H41.3525v-1.2425H47.18c.9766312.0037672 1.7779511.7742671 1.82 1.75v5.8625zm-32.62875 19.04l4.935-5.18875c1.12875-1.18125 1.6975-2.24 1.6975-3.1675.0720163-.5294952-.1095005-1.0619921-.4899305-1.437258-.3804301-.3752658-.9153581-.5494882-1.4438195-.470242-1.2425 0-2.0475.74375-2.42375 2.2225l-1.84625-.42c.1709167-.9752031.6675545-1.8635987 1.40875-2.52.7976685-.6747339 1.8169902-1.0300938 2.86125-.9975 1.0294482-.0465393 2.0356692.3150714 2.8 1.00625.6971346.6914376 1.0717732 1.6439085 1.0325 2.625 0 1.26875-.69125 2.625-2.07375 4.10375l-2.0125 2.09125a5.8712647 5.8712647 0 0 1-.56875.5075l-.30625.23625h4.9525v1.63625h-8.5225v-.2275zm15.435-1.8375H25.4975v-1.19l8.02375-9.02125H33.67v8.75h1.47v1.54h-1.47v1.995h-1.86375v-2.07375zm-3.7275-1.4875a6.754976 6.754976 0 0 1 .79625-.0525h2.9225v-4.8475a3.6575202 3.6575202 0 0 1-.2275.34125 7.3062602 7.3062602 0 0 1-.55125.7175l-2.52 3.01875a5.7049963 5.7049963 0 0 1-.56875.595l-.30625.27125.455-.04375zm12.17125.2975c.0875-.14.1925-.28.30625-.42875l.6125-.7c-.4445695.2721561-.9575738.4117904-1.47875.4025-1.0621815.0322272-2.0896698-.3800366-2.835-1.1375-1.5536743-1.66054-1.5110975-4.2538575.09625-5.8625.8527822-.8280287 2.0057708-1.2734298 3.19375-1.23375 1.185398-.0381661 2.3373949.3961934 3.2025 1.2075.8203789.7456994 1.2848747 1.8051316 1.2775865 2.91375-.0027121.5415588-.1035091 1.0781544-.2975865 1.58375a8.242505 8.242505 0 0 1-.84875 1.505l-3.33375 4.935h-2.0475l2.1525-3.185zm1.75-2.94875c.4567616-.4940652.7017707-1.1474228.6825-1.82-.0333751-1.0207749-.6674514-1.9251323-1.6157236-2.3044411-.9482721-.3793089-2.0311255-.1617234-2.7592764.5544411-.444582.4723056-.6837278 1.1016366-.665 1.75-.0188846.6609389.2123547 1.3046592.6475 1.8025.4935506.5023595 1.1682577.7853346 1.8725.7853346s1.3789494-.2829751 1.8725-.7853346l-.035.0175zm3.82375 6.5625c-.3039245-.1527171-.5654196-.3781438-.76125-.65625l.81375-.63a1.5400027 1.5400027 0 0 0 .4375.4025c.195212.1081393.4156426.162492.63875.1575.5775 0 .875-.32375.875-.98v-.4375c-.2413087.3837401-.6772124.6000024-1.12875.56-.4460987.0039501-.8714844-.1879533-1.16375-.525-.3293582-.3805399-.5041828-.8706733-.49-1.37375-.0256151-.4987243.1367427-.9889198.455-1.37375.2880779-.3376445.7111893-.5299678 1.155-.525.4831767-.0291307.9398128.2230415 1.1725.6475v-.56875H49v3.64c.0416434.5541743-.1746711 1.0965749-.58625 1.47-.3912552.3110647-.8835203.4668448-1.3825.4375-.4164315.0177035-.8309-.0663915-1.2075-.245zm2.02125-3.5c0-.58625-.27125-.875-.8225-.875s-.79625.28875-.79625.875c0 .58625.2625.875.79625.875s.8225-.2625.8225-.8575v-.0175z" fill="#23241D" fill-rule="nonzero"/><path d="M0 0h56v56H0z"/></g></svg>