<svg id="Layer_1" data-name="Layer 1" xmlns="http://www.w3.org/2000/svg" viewBox="0 0 56 45.69"><defs><style>.cls-1{fill:#3a373c;}.cls-2{fill:#424242;}.cls-3{fill:#373a3c;}</style></defs><title>monitor</title><path class="cls-1" d="M44.35,53.69H15.65a.92.92,0,0,1,0-1.84h28.7a.92.92,0,1,1,0,1.84Z" transform="translate(-2 -8)"/><rect class="cls-2" x="30.64" y="39.86" width="1.85" height="3.98"/><rect class="cls-1" x="23.88" y="39.86" width="1.85" height="3.98"/><path class="cls-3" d="M54.77,47.86H5.23A3.23,3.23,0,0,1,2,44.63V11.23A3.23,3.23,0,0,1,5.23,8H54.77A3.23,3.23,0,0,1,58,11.23v33.4A3.23,3.23,0,0,1,54.77,47.86ZM5.23,9.84a1.39,1.39,0,0,0-1.38,1.39v33.4A1.38,1.38,0,0,0,5.23,46H54.77a1.38,1.38,0,0,0,1.38-1.39V11.23a1.39,1.39,0,0,0-1.38-1.39Z" transform="translate(-2 -8)"/><path class="cls-1" d="M56.07,38.74H3.85v1.87h52.3V38.75Z" transform="translate(-2 -8)"/></svg>